<svg width="14" height="15" viewBox="0 0 14 15" fill="none" xmlns="http://www.w3.org/2000/svg">
<path d="M10.3005 11.8099C8.47804 13.6324 5.52327 13.6324 3.70082 11.8099C2.7896 10.8987 2.33399 9.70439 2.33398 8.51009C2.33398 7.31578 2.78959 6.12148 3.70082 5.21025C3.70082 5.21025 4.08401 6.17673 5.25068 6.76006C5.25068 5.5934 5.54234 3.8434 6.99242 2.67676C8.16732 3.84342 9.38717 4.29693 10.3005 5.21025C11.2117 6.12148 11.6673 7.31578 11.6673 8.51009C11.6673 9.70439 11.2117 10.8987 10.3005 11.8099Z" stroke="white" stroke-width="1.5" stroke-linecap="round" stroke-linejoin="round"/>
<path d="M5.76321 10.3308C6.44663 11.0143 7.55467 11.0143 8.23809 10.3308C8.57979 9.98913 8.75065 9.54127 8.75065 9.09342C8.75066 8.64555 8.5798 8.19767 8.23809 7.85596C7.89854 7.51641 7.45417 7.34556 7.00915 7.34342L6.41729 9.09339L5.25065 9.09342C5.25066 9.54127 5.42151 9.98913 5.76321 10.3308Z" stroke="white" stroke-width="1.5" stroke-linecap="round" stroke-linejoin="round"/>
</svg>
