<svg width="18" height="19" viewBox="0 0 18 19" fill="none" xmlns="http://www.w3.org/2000/svg">
<path d="M8.27328 12.3193C8.32558 12.3715 8.36707 12.4335 8.39538 12.5018C8.42369 12.5701 8.43826 12.6433 8.43826 12.7172C8.43826 12.7912 8.42369 12.8644 8.39538 12.9326C8.36707 13.0009 8.32558 13.063 8.27328 13.1152L6.02328 15.3652C5.97104 15.4175 5.909 15.459 5.84072 15.4873C5.77243 15.5156 5.69923 15.5302 5.62531 15.5302C5.55139 15.5302 5.4782 15.5156 5.40991 15.4873C5.34162 15.459 5.27958 15.4175 5.22734 15.3652L2.97734 13.1152C2.92508 13.0629 2.88363 13.0009 2.85534 12.9326C2.82706 12.8643 2.8125 12.7911 2.8125 12.7172C2.8125 12.6433 2.82706 12.5701 2.85534 12.5019C2.88363 12.4336 2.92508 12.3715 2.97734 12.3193C3.08289 12.2137 3.22605 12.1544 3.37531 12.1544C3.44922 12.1544 3.52241 12.169 3.59069 12.1973C3.65898 12.2256 3.72102 12.267 3.77328 12.3193L5.06281 13.6095V3.71724C5.06281 3.56806 5.12208 3.42498 5.22757 3.31949C5.33305 3.214 5.47613 3.15474 5.62531 3.15474C5.7745 3.15474 5.91757 3.214 6.02306 3.31949C6.12855 3.42498 6.18781 3.56806 6.18781 3.71724V13.6095L7.47734 12.3193C7.52958 12.267 7.59162 12.2255 7.65991 12.1972C7.7282 12.1689 7.80139 12.1543 7.87531 12.1543C7.94923 12.1543 8.02243 12.1689 8.09072 12.1972C8.159 12.2255 8.22104 12.267 8.27328 12.3193ZM15.0233 5.56927L12.7733 3.31927C12.721 3.26697 12.659 3.22548 12.5907 3.19717C12.5224 3.16887 12.4492 3.1543 12.3753 3.1543C12.3014 3.1543 12.2282 3.16887 12.1599 3.19717C12.0916 3.22548 12.0296 3.26697 11.9773 3.31927L9.72734 5.56927C9.6218 5.67482 9.5625 5.81797 9.5625 5.96724C9.5625 6.11651 9.6218 6.25966 9.72734 6.36521C9.83289 6.47076 9.97605 6.53005 10.1253 6.53005C10.2746 6.53005 10.4177 6.47076 10.5233 6.36521L11.8128 5.07497V14.9672C11.8128 15.1164 11.8721 15.2595 11.9776 15.365C12.0831 15.4705 12.2261 15.5297 12.3753 15.5297C12.5245 15.5297 12.6676 15.4705 12.7731 15.365C12.8786 15.2595 12.9378 15.1164 12.9378 14.9672V5.07497L14.2273 6.36521C14.3329 6.47076 14.476 6.53005 14.6253 6.53005C14.7746 6.53005 14.9177 6.47076 15.0233 6.36521C15.1288 6.25966 15.1881 6.11651 15.1881 5.96724C15.1881 5.81797 15.1288 5.67482 15.0233 5.56927Z" fill="white"/>
</svg>
