<svg width="32" height="33" viewBox="0 0 32 33" fill="none" xmlns="http://www.w3.org/2000/svg">
<path d="M5.57227 7.35034C5.57227 6.63046 6.15585 6.04688 6.87573 6.04688H25.1243C25.8442 6.04688 26.4277 6.63046 26.4277 7.35034V9.95728C26.4277 10.6772 25.8442 11.2607 25.1243 11.2607H6.87573C6.15585 11.2607 5.57227 10.6772 5.57227 9.95728V7.35034Z" stroke="#DDF247" stroke-width="1.51084" stroke-linecap="round" stroke-linejoin="round"/>
<path d="M5.57227 17.7781C5.57227 17.0582 6.15585 16.4746 6.87573 16.4746H14.6965C15.4164 16.4746 16 17.0582 16 17.7781V25.5989C16 26.3188 15.4164 26.9023 14.6965 26.9023H6.87573C6.15585 26.9023 5.57227 26.3188 5.57227 25.5989V17.7781Z" stroke="#DDF247" stroke-width="1.51084" stroke-linecap="round" stroke-linejoin="round"/>
<path d="M21.2139 17.7781C21.2139 17.0582 21.7974 16.4746 22.5173 16.4746H25.1243C25.8442 16.4746 26.4277 17.0582 26.4277 17.7781V25.5989C26.4277 26.3188 25.8442 26.9023 25.1243 26.9023H22.5173C21.7974 26.9023 21.2139 26.3188 21.2139 25.5989V17.7781Z" stroke="#DDF247" stroke-width="1.51084" stroke-linecap="round" stroke-linejoin="round"/>
</svg>
