<svg width="18" height="19" viewBox="0 0 18 19" fill="none" xmlns="http://www.w3.org/2000/svg">
<g clip-path="url(#clip0_0_4628)">
<path d="M6.1875 10.748V9.62305C6.1875 9.47386 6.24676 9.33079 6.35225 9.2253C6.45774 9.11981 6.60082 9.06055 6.75 9.06055C6.89918 9.06055 7.04226 9.11981 7.14775 9.2253C7.25324 9.33079 7.3125 9.47386 7.3125 9.62305V10.748C7.3125 10.8972 7.25324 11.0403 7.14775 11.1458C7.04226 11.2513 6.89918 11.3105 6.75 11.3105C6.60082 11.3105 6.45774 11.2513 6.35225 11.1458C6.24676 11.0403 6.1875 10.8972 6.1875 10.748ZM9 11.3105C9.14918 11.3105 9.29226 11.2513 9.39775 11.1458C9.50324 11.0403 9.5625 10.8972 9.5625 10.748V9.06055C9.5625 8.91136 9.50324 8.76829 9.39775 8.6628C9.29226 8.55731 9.14918 8.49805 9 8.49805C8.85082 8.49805 8.70774 8.55731 8.60225 8.6628C8.49676 8.76829 8.4375 8.91136 8.4375 9.06055V10.748C8.4375 10.8972 8.49676 11.0403 8.60225 11.1458C8.70774 11.2513 8.85082 11.3105 9 11.3105ZM11.25 11.3105C11.3992 11.3105 11.5423 11.2513 11.6477 11.1458C11.7532 11.0403 11.8125 10.8972 11.8125 10.748V8.49805C11.8125 8.34886 11.7532 8.20579 11.6477 8.1003C11.5423 7.99481 11.3992 7.93555 11.25 7.93555C11.1008 7.93555 10.9577 7.99481 10.8523 8.1003C10.7468 8.20579 10.6875 8.34886 10.6875 8.49805V10.748C10.6875 10.8972 10.7468 11.0403 10.8523 11.1458C10.9577 11.2513 11.1008 11.3105 11.25 11.3105ZM15.1875 6.24805V12.998H15.75C15.8992 12.998 16.0423 13.0573 16.1477 13.1628C16.2532 13.2683 16.3125 13.4114 16.3125 13.5605C16.3125 13.7097 16.2532 13.8528 16.1477 13.9583C16.0423 14.0638 15.8992 14.123 15.75 14.123H9.5625V15.3451C9.93781 15.4778 10.2541 15.7389 10.4555 16.0822C10.657 16.4256 10.7305 16.8291 10.6632 17.2214C10.5959 17.6138 10.392 17.9697 10.0877 18.2263C9.78333 18.4828 9.39807 18.6236 9 18.6236C8.60193 18.6236 8.21667 18.4828 7.91232 18.2263C7.60797 17.9697 7.40412 17.6138 7.3368 17.2214C7.26949 16.8291 7.34304 16.4256 7.54446 16.0822C7.74588 15.7389 8.06219 15.4778 8.4375 15.3451V14.123H2.25C2.10082 14.123 1.95774 14.0638 1.85225 13.9583C1.74676 13.8528 1.6875 13.7097 1.6875 13.5605C1.6875 13.4114 1.74676 13.2683 1.85225 13.1628C1.95774 13.0573 2.10082 12.998 2.25 12.998H2.8125V6.24805C2.51413 6.24805 2.22798 6.12952 2.017 5.91854C1.80603 5.70756 1.6875 5.42142 1.6875 5.12305V3.99805C1.6875 3.69968 1.80603 3.41353 2.017 3.20255C2.22798 2.99157 2.51413 2.87305 2.8125 2.87305H15.1875C15.4859 2.87305 15.772 2.99157 15.983 3.20255C16.194 3.41353 16.3125 3.69968 16.3125 3.99805V5.12305C16.3125 5.42142 16.194 5.70756 15.983 5.91854C15.772 6.12952 15.4859 6.24805 15.1875 6.24805ZM9.5625 16.9355C9.5625 16.8243 9.52951 16.7155 9.4677 16.623C9.40589 16.5305 9.31804 16.4584 9.21526 16.4159C9.11248 16.3733 8.99938 16.3622 8.89026 16.3839C8.78115 16.4056 8.68092 16.4591 8.60225 16.5378C8.52359 16.6165 8.47001 16.7167 8.44831 16.8258C8.4266 16.9349 8.43774 17.048 8.48032 17.1508C8.52289 17.2536 8.59499 17.3414 8.68749 17.4032C8.77999 17.4651 8.88875 17.498 9 17.498C9.14918 17.498 9.29226 17.4388 9.39775 17.3333C9.50324 17.2278 9.5625 17.0847 9.5625 16.9355ZM2.8125 5.12305H15.1875V3.99805H2.8125V5.12305ZM14.0625 6.24805H3.9375V12.998H14.0625V6.24805Z" fill="white"/>
</g>
<defs>
<clipPath id="clip0_0_4628">
<rect width="18" height="18" fill="white" transform="translate(0 0.623047)"/>
</clipPath>
</defs>
</svg>
