<svg width="64" height="8" viewBox="0 0 64 8" fill="none" xmlns="http://www.w3.org/2000/svg">
<g opacity="0.2">
<path d="M3 1C3 0.447715 3.44772 0 4 0C4.55228 0 5 0.447715 5 1V7C5 7.55228 4.55228 8 4 8C3.44772 8 3 7.55228 3 7V1Z" fill="white"/>
<path d="M7 3C7.55228 3 8 3.44772 8 4C8 4.55228 7.55228 5 7 5L1 5C0.447715 5 -6.78525e-08 4.55228 -4.37114e-08 4C-1.95703e-08 3.44771 0.447715 3 1 3L7 3Z" fill="white"/>
</g>
<g opacity="0.2">
<path d="M17 1C17 0.447715 17.4477 0 18 0C18.5523 0 19 0.447715 19 1V7C19 7.55228 18.5523 8 18 8C17.4477 8 17 7.55228 17 7V1Z" fill="white"/>
<path d="M21 3C21.5523 3 22 3.44772 22 4C22 4.55228 21.5523 5 21 5L15 5C14.4477 5 14 4.55228 14 4C14 3.44771 14.4477 3 15 3L21 3Z" fill="white"/>
</g>
<path d="M31 1C31 0.447715 31.4477 0 32 0C32.5523 0 33 0.447715 33 1V7C33 7.55228 32.5523 8 32 8C31.4477 8 31 7.55228 31 7V1Z" fill="#DDF247"/>
<path d="M35 3C35.5523 3 36 3.44772 36 4C36 4.55228 35.5523 5 35 5L29 5C28.4477 5 28 4.55228 28 4C28 3.44771 28.4477 3 29 3L35 3Z" fill="#DDF247"/>
<g opacity="0.2">
<path d="M45 1C45 0.447715 45.4477 0 46 0C46.5523 0 47 0.447715 47 1V7C47 7.55228 46.5523 8 46 8C45.4477 8 45 7.55228 45 7V1Z" fill="white"/>
<path d="M49 3C49.5523 3 50 3.44772 50 4C50 4.55228 49.5523 5 49 5L43 5C42.4477 5 42 4.55228 42 4C42 3.44771 42.4477 3 43 3L49 3Z" fill="white"/>
</g>
<g opacity="0.2">
<path d="M59 1C59 0.447715 59.4477 0 60 0C60.5523 0 61 0.447715 61 1V7C61 7.55228 60.5523 8 60 8C59.4477 8 59 7.55228 59 7V1Z" fill="white"/>
<path d="M63 3C63.5523 3 64 3.44772 64 4C64 4.55228 63.5523 5 63 5L57 5C56.4477 5 56 4.55228 56 4C56 3.44771 56.4477 3 57 3L63 3Z" fill="white"/>
</g>
</svg>
