<svg width="19" height="19" viewBox="0 0 19 19" fill="none" xmlns="http://www.w3.org/2000/svg">
<g clip-path="url(#clip0_0_12090)">
<path d="M11.5 0.794922H3.5C2.70508 0.797296 1.9434 1.11413 1.3813 1.67622C0.819207 2.23832 0.502374 3 0.5 3.79492V11.7949C0.502374 12.5898 0.819207 13.3515 1.3813 13.9136C1.9434 14.4757 2.70508 14.7925 3.5 14.7949H11.5C12.2949 14.7925 13.0566 14.4757 13.6187 13.9136C14.1808 13.3515 14.4976 12.5898 14.5 11.7949V3.79492C14.4976 3 14.1808 2.23832 13.6187 1.67622C13.0566 1.11413 12.2949 0.797296 11.5 0.794922ZM9.5 8.79492H8.5V9.79492C8.5 10.0601 8.39464 10.3145 8.20711 10.502C8.01957 10.6896 7.76522 10.7949 7.5 10.7949C7.23478 10.7949 6.98043 10.6896 6.79289 10.502C6.60536 10.3145 6.5 10.0601 6.5 9.79492V8.79492H5.5C5.23478 8.79492 4.98043 8.68957 4.79289 8.50203C4.60536 8.31449 4.5 8.06014 4.5 7.79492C4.5 7.52971 4.60536 7.27535 4.79289 7.08782C4.98043 6.90028 5.23478 6.79492 5.5 6.79492H6.5V5.79492C6.5 5.52971 6.60536 5.27535 6.79289 5.08782C6.98043 4.90028 7.23478 4.79492 7.5 4.79492C7.76522 4.79492 8.01957 4.90028 8.20711 5.08782C8.39464 5.27535 8.5 5.52971 8.5 5.79492V6.79492H9.5C9.76522 6.79492 10.0196 6.90028 10.2071 7.08782C10.3946 7.27535 10.5 7.52971 10.5 7.79492C10.5 8.06014 10.3946 8.31449 10.2071 8.50203C10.0196 8.68957 9.76522 8.79492 9.5 8.79492Z" fill="black"/>
<path d="M13.5 18.7949H4.5C4.23478 18.7949 3.98043 18.6896 3.79289 18.502C3.60536 18.3145 3.5 18.0601 3.5 17.7949C3.5 17.5297 3.60536 17.2754 3.79289 17.0878C3.98043 16.9003 4.23478 16.7949 4.5 16.7949H13.5C14.2956 16.7949 15.0587 16.4789 15.6213 15.9162C16.1839 15.3536 16.5 14.5906 16.5 13.7949V4.79492C16.5 4.52971 16.6054 4.27535 16.7929 4.08782C16.9804 3.90028 17.2348 3.79492 17.5 3.79492C17.7652 3.79492 18.0196 3.90028 18.2071 4.08782C18.3946 4.27535 18.5 4.52971 18.5 4.79492V13.7949C18.4984 15.1205 17.9711 16.3914 17.0338 17.3287C16.0964 18.266 14.8256 18.7933 13.5 18.7949Z" fill="black"/>
</g>
<defs>
<clipPath id="clip0_0_12090">
<rect width="18" height="18" fill="white" transform="translate(0.5 0.794922)"/>
</clipPath>
</defs>
</svg>
