<svg width="21" height="20" viewBox="0 0 21 20" fill="none" xmlns="http://www.w3.org/2000/svg">
<path d="M16.9883 6.25L16.4674 15.11C16.4394 15.5875 16.2299 16.0363 15.8818 16.3644C15.5337 16.6925 15.0733 16.8752 14.5949 16.875H5.63161C5.15325 16.8752 4.6929 16.6925 4.3448 16.3644C3.9967 16.0363 3.78718 15.5875 3.75911 15.11L3.23828 6.25M8.44661 9.375H11.7799M2.92578 6.25H17.3008C17.8183 6.25 18.2383 5.83 18.2383 5.3125V4.0625C18.2383 3.545 17.8183 3.125 17.3008 3.125H2.92578C2.40828 3.125 1.98828 3.545 1.98828 4.0625V5.3125C1.98828 5.83 2.40828 6.25 2.92578 6.25Z" stroke="white" stroke-width="1.5" stroke-linecap="round" stroke-linejoin="round"/>
</svg>
