<svg width="18" height="19" viewBox="0 0 18 19" fill="none" xmlns="http://www.w3.org/2000/svg">
<path d="M12.5156 2.75C11.0637 2.75 9.79242 3.37437 9 4.42977C8.20758 3.37437 6.93633 2.75 5.48438 2.75C4.3286 2.7513 3.22053 3.21101 2.40327 4.02827C1.58601 4.84553 1.1263 5.9536 1.125 7.10938C1.125 12.0312 8.42273 16.0152 8.73352 16.1797C8.81543 16.2238 8.90699 16.2468 9 16.2468C9.09301 16.2468 9.18457 16.2238 9.26648 16.1797C9.57726 16.0152 16.875 12.0312 16.875 7.10938C16.8737 5.9536 16.414 4.84553 15.5967 4.02827C14.7795 3.21101 13.6714 2.7513 12.5156 2.75ZM9 15.0406C7.71609 14.2925 2.25 10.8845 2.25 7.10938C2.25112 6.25191 2.59224 5.42988 3.19856 4.82356C3.80488 4.21724 4.62691 3.87612 5.48438 3.875C6.85195 3.875 8.00016 4.60344 8.47969 5.77344C8.52207 5.87661 8.59416 5.96485 8.6868 6.02695C8.77945 6.08905 8.88847 6.12221 9 6.12221C9.11153 6.12221 9.22055 6.08905 9.3132 6.02695C9.40584 5.96485 9.47793 5.87661 9.52031 5.77344C9.99984 4.60133 11.148 3.875 12.5156 3.875C13.3731 3.87612 14.1951 4.21724 14.8014 4.82356C15.4078 5.42988 15.7489 6.25191 15.75 7.10938C15.75 10.8788 10.2825 14.2918 9 15.0406Z" fill="white"/>
</svg>
