<svg width="18" height="18" viewBox="0 0 18 18" fill="none" xmlns="http://www.w3.org/2000/svg">
<path fill-rule="evenodd" clip-rule="evenodd" d="M1.125 4.5C1.125 4.05245 1.30279 3.62323 1.61926 3.30676C1.93572 2.99029 2.36495 2.8125 2.8125 2.8125H15.1875C15.6351 2.8125 16.0643 2.99029 16.3807 3.30676C16.6972 3.62323 16.875 4.05245 16.875 4.5V13.5C16.875 13.9476 16.6972 14.3768 16.3807 14.6932C16.0643 15.0097 15.6351 15.1875 15.1875 15.1875H2.8125C2.36495 15.1875 1.93572 15.0097 1.61926 14.6932C1.30279 14.3768 1.125 13.9476 1.125 13.5V4.5ZM2.25 12.045V13.5C2.25 13.8105 2.502 14.0625 2.8125 14.0625H15.1875C15.3367 14.0625 15.4798 14.0032 15.5852 13.8977C15.6907 13.7923 15.75 13.6492 15.75 13.5V12.045L13.7325 10.0283C13.5216 9.81757 13.2356 9.69924 12.9375 9.69924C12.6394 9.69924 12.3534 9.81757 12.1425 10.0283L11.4825 10.6875L12.21 11.415C12.2653 11.4665 12.3096 11.5286 12.3403 11.5976C12.3711 11.6666 12.3876 11.7411 12.3889 11.8166C12.3903 11.8921 12.3764 11.9672 12.3481 12.0372C12.3198 12.1072 12.2777 12.1709 12.2243 12.2243C12.1709 12.2777 12.1072 12.3198 12.0372 12.3481C11.9672 12.3764 11.8921 12.3903 11.8166 12.3889C11.7411 12.3876 11.6666 12.3711 11.5976 12.3403C11.5286 12.3096 11.4665 12.2653 11.415 12.21L7.545 8.34075C7.33406 8.13007 7.04813 8.01174 6.75 8.01174C6.45187 8.01174 6.16594 8.13007 5.955 8.34075L2.25 12.0458V12.045ZM9.84375 6.1875C9.84375 5.96372 9.93264 5.74911 10.0909 5.59088C10.2491 5.43264 10.4637 5.34375 10.6875 5.34375C10.9113 5.34375 11.1259 5.43264 11.2841 5.59088C11.4424 5.74911 11.5312 5.96372 11.5312 6.1875C11.5312 6.41128 11.4424 6.62589 11.2841 6.78412C11.1259 6.94236 10.9113 7.03125 10.6875 7.03125C10.4637 7.03125 10.2491 6.94236 10.0909 6.78412C9.93264 6.62589 9.84375 6.41128 9.84375 6.1875Z" fill="black"/>
</svg>
