<svg width="19" height="20" viewBox="0 0 19 20" fill="none" xmlns="http://www.w3.org/2000/svg">
<path d="M12.3006 8.60861C12.0976 8.49479 11.8342 8.49479 11.6109 8.60861L10.0274 9.48426L8.9522 10.055L7.36876 10.9301C7.16581 11.0444 6.90237 11.0444 6.67907 10.9301L5.42067 10.245C5.21773 10.1312 5.07583 9.92208 5.07583 9.69338V8.34232C5.07583 8.11414 5.19738 7.90502 5.42067 7.79067L6.65817 7.12467C6.86167 7.01032 7.12566 7.01032 7.34896 7.12467L8.58646 7.79067C8.78995 7.90502 8.93185 8.11414 8.93185 8.34232V9.21796L10.0071 8.62767V7.75255C10.0083 7.63889 9.97668 7.52714 9.91579 7.42974C9.85491 7.33235 9.76714 7.25313 9.66225 7.2009L7.36876 5.94514C7.16581 5.83079 6.90237 5.83079 6.67907 5.94514L4.34488 7.2009C4.23999 7.25313 4.15222 7.33235 4.09134 7.42974C4.03045 7.52714 3.99884 7.63889 4.00003 7.75255V10.2831C4.00003 10.5118 4.12158 10.721 4.34488 10.8353L6.67907 12.0911C6.88202 12.2049 7.14601 12.2049 7.36876 12.0911L8.9522 11.2345L10.0274 10.6447L11.6109 9.78867C11.8138 9.67432 12.0773 9.67432 12.3006 9.78867L13.5386 10.4547C13.7421 10.5685 13.8835 10.7776 13.8835 11.0063V12.3574C13.8835 12.5856 13.7625 12.7947 13.5386 12.909L12.3011 13.5941C12.0976 13.7084 11.8336 13.7084 11.6109 13.5941L10.3728 12.9281C10.1693 12.8137 10.0274 12.6046 10.0274 12.3764V11.5008L8.9522 12.0911V12.9662C8.9522 13.1944 9.07375 13.404 9.29705 13.5178L11.6312 14.7736C11.8342 14.888 12.0976 14.888 12.3209 14.7736L14.6551 13.5178C14.8581 13.404 15 13.1949 15 12.9662V10.4356C15.0012 10.3219 14.9695 10.2102 14.9087 10.1128C14.8478 10.0154 14.76 9.93619 14.6551 9.88396L12.3006 8.60861Z" fill="white"/>
<path d="M18.5 10.3594C18.5 15.3299 14.4706 19.3594 9.5 19.3594C4.52944 19.3594 0.5 15.3299 0.5 10.3594C0.5 5.38881 4.52944 1.35938 9.5 1.35938C14.4706 1.35938 18.5 5.38881 18.5 10.3594Z" stroke="white"/>
</svg>
