<svg width="59" height="57" viewBox="0 0 59 57" fill="none" xmlns="http://www.w3.org/2000/svg">
<path d="M23.722 42.0518V37.8602H24.5253L26.3475 40.6546V37.8602H27.1509V42.0518H26.3475L24.5253 39.2574V42.0518H23.722ZM27.963 42.0518V37.8602H30.5245V38.652H28.7548V39.5601H30.1752V40.3519H28.7548V42.0518H27.963ZM32.8489 42.1391C32.4298 42.1391 32.0679 42.0479 31.7632 41.8655C31.4605 41.6831 31.2266 41.4279 31.0617 41.0999C30.8987 40.772 30.8172 40.3907 30.8172 39.956C30.8172 39.5213 30.8987 39.14 31.0617 38.8121C31.2266 38.4841 31.4605 38.2289 31.7632 38.0465C32.0679 37.8641 32.4298 37.7729 32.8489 37.7729C33.3302 37.7729 33.7338 37.8923 34.0598 38.1309C34.3877 38.3696 34.6187 38.6927 34.7526 39.1002L33.955 39.3215C33.8774 39.0672 33.7464 38.8703 33.5621 38.7306C33.3777 38.5889 33.14 38.5181 32.8489 38.5181C32.5831 38.5181 32.3609 38.5773 32.1823 38.6956C32.0058 38.814 31.8728 38.9809 31.7836 39.1963C31.6943 39.4117 31.6497 39.6649 31.6497 39.956C31.6497 40.2471 31.6943 40.5003 31.7836 40.7157C31.8728 40.9311 32.0058 41.098 32.1823 41.2164C32.3609 41.3347 32.5831 41.3939 32.8489 41.3939C33.14 41.3939 33.3777 41.3231 33.5621 41.1814C33.7464 41.0398 33.8774 40.8428 33.955 40.5906L34.7526 40.8118C34.6187 41.2193 34.3877 41.5424 34.0598 41.7811C33.7338 42.0197 33.3302 42.1391 32.8489 42.1391Z" fill="#DDF247"/>
<rect x="16.3638" y="24.2705" width="25.6251" height="31.4765" stroke="#DDF247" stroke-width="1.00886"/>
<rect x="18.8016" y="26.6683" width="20.7511" height="26.6998" stroke="#DDF247" stroke-width="0.907977"/>
<rect x="41.7402" y="24.1213" width="0.807433" height="3.27122" transform="rotate(48.1603 41.7402 24.1213)" fill="#DDF247"/>
<rect width="0.807433" height="3.27122" transform="matrix(-0.688457 0.725278 0.725278 0.688457 16.5703 24.0503)" fill="#DDF247"/>
<rect width="0.807433" height="3.27122" transform="matrix(-0.710446 0.703752 0.703752 0.710446 39.877 53.0754)" fill="#DDF247"/>
<rect x="18.4668" y="53.0754" width="0.807433" height="3.27122" transform="rotate(44.7288 18.4668 53.0754)" fill="#DDF247"/>
<path fill-rule="evenodd" clip-rule="evenodd" d="M30.4276 20.7957C30.2984 21.0838 30.0725 21.3192 29.7913 21.4607L31.5578 23.8178H26.7936L28.5601 21.4607C28.2789 21.3192 28.0531 21.0838 27.9238 20.7957L25.659 23.8178L24.9785 24.7258H26.1132H32.2382H33.3729L32.6924 23.8178L30.4276 20.7957Z" fill="#DDF247"/>
<circle cx="29.1761" cy="20.2349" r="1.01832" stroke="#DDF247" stroke-width="0.706204"/>
<path d="M47.4774 38.6908C48.1777 39.0349 49.029 38.7478 49.3271 38.0267C50.5578 35.0503 51.116 31.8323 50.9543 28.6038C50.7689 24.9041 49.644 21.3126 47.6857 18.1681C45.7275 15.0237 43.0004 12.43 39.7618 10.6317C36.5232 8.83335 32.8799 7.88976 29.1755 7.88989C25.4712 7.89003 21.8279 8.83389 18.5895 10.6324C15.351 12.431 12.6241 15.0249 10.6661 18.1695C8.70809 21.3141 7.58347 24.9057 7.39834 28.6054C7.23679 31.8339 7.7953 35.0519 9.02619 38.0282C9.32438 38.7493 10.1757 39.0363 10.8759 38.6921C11.5761 38.3478 11.8594 37.5027 11.5682 36.7789C10.5451 34.2357 10.0829 31.4956 10.2204 28.7466C10.3816 25.5263 11.3605 22.4001 13.0647 19.663C14.769 16.9259 17.1425 14.6681 19.9613 13.1027C22.7801 11.5372 25.9513 10.7156 29.1756 10.7155C32.4 10.7154 35.5712 11.5367 38.3901 13.102C41.209 14.6673 43.5827 16.9249 45.2872 19.6619C46.9917 22.3988 47.9708 25.5249 48.1322 28.7452C48.2699 31.4942 47.8079 34.2344 46.785 36.7776C46.4939 37.5015 46.7772 38.3466 47.4774 38.6908Z" fill="#DDF247"/>
<path d="M40.0378 21.226C40.5355 20.8792 40.661 20.1915 40.2774 19.7215C39.046 18.2125 37.5202 16.9645 35.7889 16.0559C33.7328 14.9768 31.4473 14.4081 29.1252 14.3978C26.8032 14.3876 24.5127 14.936 22.4471 15.9969C20.7079 16.8901 19.1711 18.1246 17.9264 19.6226C17.5387 20.0892 17.6581 20.778 18.1527 21.1292C18.6473 21.4804 19.3295 21.3604 19.7235 20.8991C20.7598 19.6858 22.0251 18.6833 23.4508 17.9511C25.2029 17.0512 27.1458 16.586 29.1155 16.5947C31.0852 16.6034 33.0239 17.0858 34.768 18.0012C36.1871 18.746 37.4435 19.7596 38.4691 20.9821C38.859 21.4468 39.5401 21.5729 40.0378 21.226Z" fill="#DDF247"/>
<path fill-rule="evenodd" clip-rule="evenodd" d="M56.3092 39.6989C54.1666 45.5102 50.2148 50.48 45.0356 53.8767V49.9657C48.7896 47.0288 51.6661 43.0969 53.3246 38.5985C55.2315 33.4263 55.4274 27.7785 53.8832 22.4866C52.3391 17.1947 49.1366 12.5385 44.7474 9.20345C40.3581 5.86842 35.014 4.03084 29.5019 3.96128C23.9897 3.89172 18.601 5.59385 14.1289 8.81706C9.65688 12.0403 6.33793 16.6142 4.66076 21.8654C2.98358 27.1166 3.03681 32.7676 4.8126 37.9863C6.34258 42.4826 9.08159 46.4533 12.709 49.4736V53.4657C7.61938 49.9395 3.79589 44.8728 1.80126 39.011C-0.194016 33.1473 -0.253822 26.7979 1.63065 20.8976C3.51511 14.9974 7.24427 9.85814 12.269 6.23656C17.2938 2.61498 23.3486 0.702466 29.542 0.780624C35.7354 0.858781 41.74 2.92348 46.6718 6.6707C51.6035 10.4179 55.2018 15.6497 56.9368 21.5956C58.6718 27.5415 58.4518 33.8874 56.3092 39.6989Z" fill="#DDF247"/>
</svg>
