<svg width="67" height="66" viewBox="0 0 67 66" fill="none" xmlns="http://www.w3.org/2000/svg">
<g clip-path="url(#clip0_29_8454)">
<path d="M41.0401 30.7192L32.2769 24.877C30.4554 23.6627 28.0156 24.9685 28.0156 27.1576V38.8419C28.0156 41.031 30.4554 42.3368 32.2769 41.1225L41.0401 35.2803C42.6675 34.1954 42.6675 31.8041 41.0401 30.7192Z" fill="white" stroke="white" stroke-width="5.48177" stroke-linecap="round" stroke-linejoin="round"/>
<path d="M41.0427 30.7194L32.2795 24.8773C30.458 23.663 28.0182 24.9687 28.0182 27.1578V38.8422C28.0182 41.0313 30.458 42.337 32.2795 41.1227L41.0427 35.2806C42.6701 34.1957 42.6701 31.8043 41.0427 30.7194Z" stroke="white" stroke-width="5.48177" stroke-linecap="round" stroke-linejoin="round"/>
<path d="M58.168 33C58.168 46.6237 47.1237 57.668 33.5 57.668C19.8763 57.668 8.83203 46.6237 8.83203 33C8.83203 19.3763 19.8763 8.33203 33.5 8.33203C47.1237 8.33203 58.168 19.3763 58.168 33Z" stroke="white" stroke-width="5.48177" stroke-linecap="round" stroke-linejoin="round"/>
</g>
<defs>
<clipPath id="clip0_29_8454">
<rect width="65.7812" height="65.7812" fill="white" transform="translate(0.609375 0.109375)"/>
</clipPath>
</defs>
</svg>
