<svg width="34" height="35" viewBox="0 0 34 35" fill="none" xmlns="http://www.w3.org/2000/svg">
<g clip-path="url(#clip0_29_8244)">
<path d="M20.6757 0.878906H5.63883C4.1447 0.883369 2.71303 1.47889 1.65651 2.53541C0.599985 3.59193 0.00446237 5.0236 0 6.51774V21.5546C0.00446237 23.0488 0.599985 24.4804 1.65651 25.537C2.71303 26.5935 4.1447 27.189 5.63883 27.1935H20.6757C22.1699 27.189 23.6015 26.5935 24.6581 25.537C25.7146 24.4804 26.3101 23.0488 26.3146 21.5546V6.51774C26.3101 5.0236 25.7146 3.59193 24.6581 2.53541C23.6015 1.47889 22.1699 0.883369 20.6757 0.878906ZM16.9165 15.9158H15.0369V17.7954C15.0369 18.2939 14.8389 18.772 14.4864 19.1245C14.1339 19.477 13.6558 19.675 13.1573 19.675C12.6588 19.675 12.1807 19.477 11.8282 19.1245C11.4757 18.772 11.2777 18.2939 11.2777 17.7954V15.9158H9.39806C8.89955 15.9158 8.42147 15.7178 8.06897 15.3653C7.71648 15.0128 7.51845 14.5347 7.51845 14.0362C7.51845 13.5377 7.71648 13.0596 8.06897 12.7071C8.42147 12.3546 8.89955 12.1566 9.39806 12.1566H11.2777V10.277C11.2777 9.77846 11.4757 9.30037 11.8282 8.94788C12.1807 8.59538 12.6588 8.39735 13.1573 8.39735C13.6558 8.39735 14.1339 8.59538 14.4864 8.94788C14.8389 9.30037 15.0369 9.77846 15.0369 10.277V12.1566H16.9165C17.415 12.1566 17.8931 12.3546 18.2456 12.7071C18.5981 13.0596 18.7961 13.5377 18.7961 14.0362C18.7961 14.5347 18.5981 15.0128 18.2456 15.3653C17.8931 15.7178 17.415 15.9158 16.9165 15.9158Z" fill="#DDF247"/>
<path d="M24.4348 34.7118H7.51828C7.01978 34.7118 6.54169 34.5137 6.1892 34.1612C5.8367 33.8087 5.63867 33.3306 5.63867 32.8321C5.63867 32.3336 5.8367 31.8555 6.1892 31.5031C6.54169 31.1506 7.01978 30.9525 7.51828 30.9525H24.4348C25.9303 30.9525 27.3646 30.3584 28.422 29.301C29.4795 28.2435 30.0736 26.8092 30.0736 25.3137V8.39719C30.0736 7.89869 30.2717 7.4206 30.6241 7.0681C30.9766 6.71561 31.4547 6.51758 31.9532 6.51758C32.4517 6.51758 32.9298 6.71561 33.2823 7.0681C33.6348 7.4206 33.8328 7.89869 33.8328 8.39719V25.3137C33.8299 27.8053 32.8388 30.194 31.0769 31.9558C29.3151 33.7177 26.9264 34.7088 24.4348 34.7118Z" fill="#DDF247"/>
</g>
<defs>
<clipPath id="clip0_29_8244">
<rect width="33.833" height="33.833" fill="white" transform="translate(0 0.878906)"/>
</clipPath>
</defs>
</svg>
