<svg width="14" height="15" viewBox="0 0 14 15" fill="none" xmlns="http://www.w3.org/2000/svg">
<path d="M11.6849 10.3977L9.93488 12.1477C9.85278 12.2298 9.74144 12.2759 9.62534 12.2759C9.50925 12.2759 9.39791 12.2298 9.31581 12.1477C9.23372 12.0656 9.1876 11.9542 9.1876 11.8381C9.1876 11.722 9.23372 11.6107 9.31581 11.5286L10.3193 10.5256H2.62534C2.50931 10.5256 2.39803 10.4795 2.31599 10.3975C2.23394 10.3154 2.18784 10.2042 2.18784 10.0881C2.18784 9.9721 2.23394 9.86082 2.31599 9.77877C2.39803 9.69673 2.50931 9.65063 2.62534 9.65063H10.3193L9.31581 8.64767C9.23372 8.56557 9.1876 8.45423 9.1876 8.33813C9.1876 8.22204 9.23372 8.1107 9.31581 8.0286C9.39791 7.94651 9.50925 7.90039 9.62534 7.90039C9.74144 7.90039 9.85278 7.94651 9.93488 8.0286L11.6849 9.7786C11.7256 9.81923 11.7578 9.86749 11.7798 9.9206C11.8019 9.97371 11.8132 10.0306 11.8132 10.0881C11.8132 10.1456 11.8019 10.2026 11.7798 10.2557C11.7578 10.3088 11.7256 10.357 11.6849 10.3977ZM4.06581 6.89767C4.14791 6.97976 4.25925 7.02588 4.37534 7.02588C4.49144 7.02588 4.60278 6.97976 4.68488 6.89767C4.76697 6.81557 4.81309 6.70423 4.81309 6.58813C4.81309 6.47204 4.76697 6.3607 4.68488 6.2786L3.68136 5.27563H11.3753C11.4914 5.27563 11.6027 5.22954 11.6847 5.14749C11.7668 5.06545 11.8128 4.95417 11.8128 4.83813C11.8128 4.7221 11.7668 4.61082 11.6847 4.52877C11.6027 4.44673 11.4914 4.40063 11.3753 4.40063H3.68136L4.68488 3.39767C4.76697 3.31557 4.81309 3.20423 4.81309 3.08813C4.81309 2.97204 4.76697 2.8607 4.68488 2.7786C4.60278 2.69651 4.49144 2.65039 4.37534 2.65039C4.25925 2.65039 4.14791 2.69651 4.06581 2.7786L2.31581 4.5286C2.27514 4.56923 2.24287 4.61749 2.22085 4.6706C2.19883 4.72371 2.1875 4.78064 2.1875 4.83813C2.1875 4.89563 2.19883 4.95256 2.22085 5.00567C2.24287 5.05878 2.27514 5.10703 2.31581 5.14767L4.06581 6.89767Z" fill="white"/>
</svg>
