<svg width="18" height="18" viewBox="0 0 18 18" fill="none" xmlns="http://www.w3.org/2000/svg">
<path d="M0.800351 7.87826H2.58333C3.59586 7.87826 4.41667 8.69907 4.41667 9.71159V10.6283C4.41667 11.6408 5.23748 12.4616 6.25 12.4616C7.26252 12.4616 8.08333 13.2824 8.08333 14.2949V16.9946M5.33333 1.40248V2.83659C5.33333 4.10224 6.35935 5.12826 7.625 5.12826H8.08333C9.09586 5.12826 9.91667 5.94907 9.91667 6.96159C9.91667 7.97411 10.7375 8.79492 11.75 8.79492C12.7625 8.79492 13.5833 7.97411 13.5833 6.96159C13.5833 5.94907 14.4041 5.12826 15.4167 5.12826L16.3924 5.12825M11.75 16.5755V14.2949C11.75 13.2824 12.5708 12.4616 13.5833 12.4616H16.3924M17.25 8.79492C17.25 13.3513 13.5563 17.0449 9 17.0449C4.44365 17.0449 0.75 13.3513 0.75 8.79492C0.75 4.23857 4.44365 0.544922 9 0.544922C13.5563 0.544922 17.25 4.23857 17.25 8.79492Z" stroke="#454545" stroke-width="1.0625" stroke-linecap="round" stroke-linejoin="round"/>
</svg>
