<svg width="19" height="20" viewBox="0 0 19 20" fill="none" xmlns="http://www.w3.org/2000/svg">
<path fill-rule="evenodd" clip-rule="evenodd" d="M17.0713 5.78289L16.5008 4.7928C16.0181 3.95504 14.9484 3.66604 14.1095 4.14673V4.14673C13.7101 4.38197 13.2336 4.44872 12.785 4.33224C12.3364 4.21576 11.9526 3.92563 11.7182 3.52583C11.5673 3.27171 11.4863 2.98227 11.4832 2.68678V2.68678C11.4968 2.21303 11.3181 1.75394 10.9877 1.41411C10.6574 1.07427 10.2035 0.882617 9.7296 0.882813H8.5801C8.11577 0.882807 7.67059 1.06783 7.34306 1.39694C7.01552 1.72605 6.83263 2.17212 6.83486 2.63644V2.63644C6.8211 3.59509 6.03999 4.36499 5.08124 4.36489C4.78575 4.36182 4.49631 4.28077 4.24219 4.12995V4.12995C3.40328 3.64926 2.33358 3.93826 1.85088 4.77602L1.23837 5.78289C0.756265 6.6196 1.04134 7.68863 1.87605 8.17419V8.17419C2.41863 8.48745 2.75288 9.06637 2.75288 9.69288C2.75288 10.3194 2.41863 10.8983 1.87605 11.2116V11.2116C1.0424 11.6939 0.757014 12.7603 1.23837 13.5945V13.5945L1.81732 14.593C2.04348 15.001 2.42294 15.3022 2.87173 15.4297C3.32052 15.5573 3.80164 15.5007 4.20862 15.2726V15.2726C4.60871 15.0391 5.08548 14.9752 5.53295 15.0949C5.98042 15.2147 6.36152 15.5082 6.59154 15.9103C6.74236 16.1644 6.8234 16.4538 6.82647 16.7493V16.7493C6.82647 17.7178 7.6116 18.5029 8.5801 18.5029H9.7296C10.6948 18.503 11.4786 17.7229 11.4832 16.7577V16.7577C11.481 16.2919 11.665 15.8446 11.9944 15.5152C12.3237 15.1859 12.7711 15.0018 13.2368 15.0041C13.5316 15.012 13.8199 15.0927 14.0759 15.239V15.239C14.9126 15.7211 15.9816 15.4361 16.4672 14.6013V14.6013L17.0713 13.5945C17.3052 13.1931 17.3693 12.7151 17.2497 12.2663C17.13 11.8174 16.8363 11.4348 16.4336 11.2032V11.2032C16.031 10.9715 15.7373 10.5889 15.6176 10.1401C15.4979 9.69127 15.5621 9.21324 15.796 8.81187C15.948 8.54638 16.1682 8.32626 16.4336 8.17419V8.17419C17.2634 7.68889 17.5478 6.62611 17.0713 5.79128V5.79128V5.78289Z" stroke="#454545" stroke-width="1.5" stroke-linecap="round" stroke-linejoin="round"/>
<ellipse cx="9.15866" cy="9.69382" rx="2.41648" ry="2.41648" stroke="#454545" stroke-width="1.5" stroke-linecap="round" stroke-linejoin="round"/>
</svg>
