<svg width="22" height="22" viewBox="0 0 22 22" fill="none" xmlns="http://www.w3.org/2000/svg">
<path fill-rule="evenodd" clip-rule="evenodd" d="M9.5 21.5V14H7.75C7.336 14 7 13.664 7 13.25V10.75C7 10.336 7.336 10 7.75 10H9.5V7.25C9.5 5.179 11.179 3.5 13.25 3.5H16.75C17.164 3.5 17.5 3.836 17.5 4.25V6.75C17.5 7.164 17.164 7.5 16.75 7.5H13.75C13.612 7.5 13.5 7.612 13.5 7.75V10H16.75C16.975 10 17.188 10.101 17.33 10.275C17.472 10.448 17.53 10.677 17.485 10.897L16.985 13.397C16.915 13.748 16.608 14 16.25 14H13.5V21.5H15.75C18.926 21.5 21.5 18.926 21.5 15.75V5.75C21.5 2.574 18.926 0 15.75 0H5.75C2.574 0 0 2.574 0 5.75V15.75C0 18.926 2.574 21.5 5.75 21.5H9.5Z" fill="black" fill-opacity="0.2"/>
</svg>
