<svg width="22" height="22" viewBox="0 0 22 22" fill="none" xmlns="http://www.w3.org/2000/svg">
<path fill-rule="evenodd" clip-rule="evenodd" d="M21.5 4.75C21.5 3.49 21 2.282 20.109 1.391C19.218 0.5 18.01 0 16.75 0H4.75C3.49 0 2.282 0.5 1.391 1.391C0.5 2.282 0 3.49 0 4.75V16.75C0 18.01 0.5 19.218 1.391 20.109C2.282 21 3.49 21.5 4.75 21.5H16.75C18.01 21.5 19.218 21 20.109 20.109C21 19.218 21.5 18.01 21.5 16.75V4.75ZM12.75 3.25L12.721 3.251L12.698 3.252L12.673 3.254L12.645 3.257L12.617 3.262L12.59 3.267L12.563 3.274L12.536 3.281L12.51 3.289L12.484 3.299L12.458 3.309L12.433 3.32L12.409 3.332L12.385 3.345L12.361 3.359L12.338 3.373L12.316 3.388L12.294 3.405L12.273 3.421L12.253 3.439L12.233 3.457L12.213 3.476L12.195 3.496L12.177 3.516L12.16 3.537L12.144 3.559L12.128 3.581L12.113 3.604L12.099 3.627L12.086 3.651L12.074 3.675L12.063 3.7L12.052 3.725L12.042 3.751L12.034 3.777L12.026 3.804L12.019 3.831L12.013 3.858L12.009 3.886L12.005 3.914L12.003 3.933L12.001 3.961L12 3.99V4V13.5C12 15.294 10.544 16.75 8.75 16.75C6.956 16.75 5.5 15.294 5.5 13.5C5.5 11.706 6.956 10.25 8.75 10.25C9.164 10.25 9.5 9.914 9.5 9.5C9.5 9.086 9.164 8.75 8.75 8.75C6.128 8.75 4 10.878 4 13.5C4 16.122 6.128 18.25 8.75 18.25C11.372 18.25 13.5 16.122 13.5 13.5V7.463C14.35 8.261 15.493 8.75 16.75 8.75C17.164 8.75 17.5 8.414 17.5 8C17.5 7.586 17.164 7.25 16.75 7.25C14.956 7.25 13.5 5.794 13.5 4C13.5 3.66 13.274 3.373 12.964 3.281L12.945 3.276L12.926 3.271L12.901 3.265L12.873 3.26L12.845 3.256L12.817 3.253L12.789 3.251L12.76 3.25H12.75Z" fill="black" fill-opacity="0.2"/>
</svg>
