<svg width="18" height="19" viewBox="0 0 18 19" fill="none" xmlns="http://www.w3.org/2000/svg">
<path d="M9.63075 11.825L9 10.25L8.36925 11.825L6.75 11.969L7.98 13.0858L7.6095 14.75L9 13.8657L10.3905 14.75L10.02 13.0858L11.25 11.969L9.63075 11.825V11.825ZM4.5 2H13.5V3.5H4.5V2ZM3 5H15V6.5H3V5Z" fill="white"/>
<path d="M15 9.5V15.5H3V9.5H15ZM15 8H3C2.60218 8 2.22064 8.15804 1.93934 8.43934C1.65804 8.72064 1.5 9.10218 1.5 9.5V15.5C1.5 15.8978 1.65804 16.2794 1.93934 16.5607C2.22064 16.842 2.60218 17 3 17H15C15.3978 17 15.7794 16.842 16.0607 16.5607C16.342 16.2794 16.5 15.8978 16.5 15.5V9.5C16.5 9.10218 16.342 8.72064 16.0607 8.43934C15.7794 8.15804 15.3978 8 15 8Z" fill="white"/>
</svg>
