<svg width="14" height="15" viewBox="0 0 14 15" fill="none" xmlns="http://www.w3.org/2000/svg">
<path d="M8.13823 6.50445C8.31921 6.71302 8.635 6.73539 8.84357 6.55441C9.05214 6.37343 9.07451 6.05764 8.89353 5.84907L8.13823 6.50445ZM5.86178 9.34907C5.6808 9.1405 5.36501 9.11813 5.15644 9.29911C4.94787 9.48008 4.9255 9.79588 5.10648 10.0044L5.86178 9.34907ZM7.5 5.01009C7.5 4.73395 7.27614 4.51009 7 4.51009C6.72386 4.51009 6.5 4.73395 6.5 5.01009H7.5ZM6.5 10.8434C6.49999 11.1196 6.72385 11.3434 6.99999 11.3434C7.27613 11.3434 7.49999 11.1196 7.5 10.8434L6.5 10.8434ZM11.75 7.92676C11.75 10.5501 9.62335 12.6768 7 12.6768V13.6768C10.1756 13.6768 12.75 11.1024 12.75 7.92676H11.75ZM7 12.6768C4.37665 12.6768 2.25 10.5501 2.25 7.92676H1.25C1.25 11.1024 3.82436 13.6768 7 13.6768V12.6768ZM2.25 7.92676C2.25 5.30341 4.37665 3.17676 7 3.17676V2.17676C3.82436 2.17676 1.25 4.75112 1.25 7.92676H2.25ZM7 3.17676C9.62335 3.17676 11.75 5.30341 11.75 7.92676H12.75C12.75 4.75112 10.1756 2.17676 7 2.17676V3.17676ZM7 7.42676C6.6017 7.42676 6.26371 7.31822 6.03991 7.16902C5.81262 7.01749 5.75 6.86307 5.75 6.76009H4.75C4.75 7.30145 5.07913 7.73035 5.48521 8.00107C5.89479 8.27412 6.43181 8.42676 7 8.42676V7.42676ZM5.75 6.76009C5.75 6.65712 5.81262 6.50269 6.03991 6.35116C6.26371 6.20196 6.6017 6.09342 7 6.09342V5.09342C6.43181 5.09342 5.89479 5.24606 5.48521 5.51911C5.07913 5.78983 4.75 6.21873 4.75 6.76009H5.75ZM7 6.09342C7.54442 6.09342 7.95484 6.2931 8.13823 6.50445L8.89353 5.84907C8.47175 5.36298 7.75107 5.09342 7 5.09342V6.09342ZM7 8.42676C7.3983 8.42676 7.73629 8.53529 7.96009 8.68449C8.1874 8.83603 8.25001 8.99045 8.25001 9.09342H9.25001C9.25001 8.55206 8.92087 8.12316 8.51479 7.85244C8.10521 7.57939 7.56819 7.42676 7 7.42676V8.42676ZM6.5 5.01009V5.59342H7.5V5.01009H6.5ZM6.50001 10.2601L6.5 10.8434L7.5 10.8434L7.50001 10.2601L6.50001 10.2601ZM7.00001 9.76009C6.45559 9.76009 6.04517 9.56042 5.86178 9.34907L5.10648 10.0044C5.52826 10.4905 6.24895 10.7601 7.00001 10.7601L7.00001 9.76009ZM8.25001 9.09342C8.25001 9.1964 8.18739 9.35083 7.9601 9.50236C7.7363 9.65156 7.39832 9.76009 7.00001 9.76009V10.7601C7.56821 10.7601 8.10522 10.6075 8.5148 10.3344C8.92088 10.0637 9.25001 9.63478 9.25001 9.09342H8.25001ZM6.5 5.59343L6.50001 10.2601L7.50001 10.2601L7.5 5.59342L6.5 5.59343Z" fill="white"/>
</svg>
