<svg width="14" height="15" viewBox="0 0 14 15" fill="none" xmlns="http://www.w3.org/2000/svg">
<path d="M7.49123 9.73517L7.00065 8.51017L6.51007 9.73517L5.25065 9.84717L6.20732 10.7158L5.91915 12.0102L7.00065 11.3224L8.08215 12.0102L7.79398 10.7158L8.75065 9.84717L7.49123 9.73517V9.73517ZM3.50065 2.09351H10.5007V3.26017H3.50065V2.09351ZM2.33398 4.42684H11.6673V5.59351H2.33398V4.42684Z" fill="white"/>
<path d="M11.666 7.92668V12.5933H2.33268V7.92668H11.666ZM11.666 6.76001H2.33268C2.02326 6.76001 1.72652 6.88293 1.50772 7.10172C1.28893 7.32051 1.16602 7.61726 1.16602 7.92668V12.5933C1.16602 12.9028 1.28893 13.1995 1.50772 13.4183C1.72652 13.6371 2.02326 13.76 2.33268 13.76H11.666C11.9754 13.76 12.2722 13.6371 12.491 13.4183C12.7098 13.1995 12.8327 12.9028 12.8327 12.5933V7.92668C12.8327 7.61726 12.7098 7.32051 12.491 7.10172C12.2722 6.88293 11.9754 6.76001 11.666 6.76001Z" fill="white"/>
</svg>
