<svg width="15" height="15" viewBox="0 0 15 15" fill="none" xmlns="http://www.w3.org/2000/svg">
<g clip-path="url(#clip0_0_6053)">
<path d="M5.75 11.9355C5.75 12.1086 5.69868 12.2778 5.60254 12.4217C5.50639 12.5656 5.36973 12.6777 5.20985 12.7439C5.04996 12.8102 4.87403 12.8275 4.7043 12.7937C4.53456 12.76 4.37865 12.6766 4.25628 12.5543C4.13391 12.4319 4.05057 12.276 4.01681 12.1063C3.98305 11.9365 4.00038 11.7606 4.06661 11.6007C4.13283 11.4408 4.24498 11.3042 4.38888 11.208C4.53277 11.1119 4.70194 11.0605 4.875 11.0605C5.10706 11.0605 5.32962 11.1527 5.49372 11.3168C5.65781 11.4809 5.75 11.7035 5.75 11.9355ZM10.5625 11.0605C10.3894 11.0605 10.2203 11.1119 10.0764 11.208C9.93248 11.3042 9.82033 11.4408 9.75411 11.6007C9.68788 11.7606 9.67055 11.9365 9.70431 12.1063C9.73808 12.276 9.82141 12.4319 9.94378 12.5543C10.0662 12.6766 10.2221 12.76 10.3918 12.7937C10.5615 12.8275 10.7375 12.8102 10.8973 12.7439C11.0572 12.6777 11.1939 12.5656 11.29 12.4217C11.3862 12.2778 11.4375 12.1086 11.4375 11.9355C11.4375 11.7035 11.3453 11.4809 11.1812 11.3168C11.0171 11.1527 10.7946 11.0605 10.5625 11.0605ZM13.1684 4.18906L11.6081 9.25914C11.5264 9.52791 11.3602 9.76318 11.1342 9.93006C10.9083 10.0969 10.6345 10.1865 10.3536 10.1855H5.09758C4.81264 10.1845 4.53572 10.0911 4.30828 9.9195C4.08084 9.74786 3.91512 9.50715 3.83594 9.23344L1.85734 2.31055H0.9375C0.821468 2.31055 0.710188 2.26445 0.628141 2.18241C0.546094 2.10036 0.5 1.98908 0.5 1.87305C0.5 1.75701 0.546094 1.64573 0.628141 1.56369C0.710188 1.48164 0.821468 1.43555 0.9375 1.43555H1.85734C2.04733 1.43618 2.23201 1.49832 2.38373 1.61268C2.53545 1.72704 2.64605 1.88745 2.69898 2.06992L3.1425 3.62305H12.75C12.8185 3.62302 12.886 3.63907 12.9471 3.66989C13.0082 3.70071 13.0613 3.74544 13.102 3.8005C13.1427 3.85556 13.1699 3.9194 13.1814 3.98688C13.1929 4.05437 13.1885 4.12362 13.1684 4.18906ZM12.1577 4.49805H3.39242L4.67703 8.99336C4.70317 9.08473 4.75834 9.16511 4.83422 9.22234C4.91009 9.27957 5.00254 9.31053 5.09758 9.31055H10.3536C10.4472 9.31058 10.5384 9.28059 10.6137 9.22497C10.689 9.16935 10.7445 9.09105 10.772 9.00156L12.1577 4.49805Z" fill="white"/>
</g>
<defs>
<clipPath id="clip0_0_6053">
<rect width="14" height="14" fill="white" transform="translate(0.5 0.123047)"/>
</clipPath>
</defs>
</svg>
