<svg width="14" height="15" viewBox="0 0 14 15" fill="none" xmlns="http://www.w3.org/2000/svg">
<path d="M2.33398 4.42676H11.6673M2.33398 6.76009H11.6673M2.33398 9.09342H11.6673M2.33398 11.4268H11.6673" stroke="white" stroke-linecap="round" stroke-linejoin="round"/>
<path d="M12.7964 6.36328C12.7964 8.35709 11.1801 9.97339 9.18628 9.97339C7.19247 9.97339 5.57617 8.35709 5.57617 6.36328C5.57617 4.36947 7.19247 2.75317 9.18628 2.75317C11.1801 2.75317 12.7964 4.36947 12.7964 6.36328Z" fill="#232323"/>
<path d="M8.38403 7.16553L9.18628 6.36328M9.18628 6.36328L9.98853 5.56103M9.18628 6.36328L8.38403 5.56103M9.18628 6.36328L9.98852 7.16553M12.7964 6.36328C12.7964 8.35709 11.1801 9.97339 9.18628 9.97339C7.19247 9.97339 5.57617 8.35709 5.57617 6.36328C5.57617 4.36947 7.19247 2.75317 9.18628 2.75317C11.1801 2.75317 12.7964 4.36947 12.7964 6.36328Z" stroke="white" stroke-width="0.687639" stroke-linecap="round" stroke-linejoin="round"/>
</svg>
