<svg width="26" height="26" viewBox="0 0 26 26" fill="none" xmlns="http://www.w3.org/2000/svg">
<path d="M8.66732 7.58333V16.25C8.66732 17.4466 9.63737 18.4167 10.834 18.4167H17.334M8.66732 7.58333V5.41667C8.66732 4.22005 9.63737 3.25 10.834 3.25H15.8019C16.0892 3.25 16.3648 3.36414 16.568 3.5673L21.35 8.34937C21.5532 8.55253 21.6673 8.82808 21.6673 9.1154V16.25C21.6673 17.4466 20.6973 18.4167 19.5006 18.4167H17.334M8.66732 7.58333H7.22287C5.62738 7.58333 4.33398 8.87673 4.33398 10.4722V20.5833C4.33398 21.78 5.30403 22.75 6.50065 22.75H14.4451C16.0406 22.75 17.334 21.4566 17.334 19.8611V18.4167" stroke="white" stroke-width="2.16667" stroke-linecap="round" stroke-linejoin="round"/>
</svg>
