<svg width="26" height="26" viewBox="0 0 26 26" fill="none" xmlns="http://www.w3.org/2000/svg">
<path d="M8.66634 7.58333V16.25C8.66634 17.4466 9.63639 18.4167 10.833 18.4167H17.333M8.66634 7.58333V5.41667C8.66634 4.22005 9.63639 3.25 10.833 3.25H15.8009C16.0883 3.25 16.3638 3.36414 16.567 3.5673L21.349 8.34937C21.5522 8.55253 21.6663 8.82808 21.6663 9.1154V16.25C21.6663 17.4466 20.6963 18.4167 19.4997 18.4167H17.333M8.66634 7.58333H7.2219C5.62641 7.58333 4.33301 8.87673 4.33301 10.4722V20.5833C4.33301 21.78 5.30306 22.75 6.49967 22.75H14.4441C16.0396 22.75 17.333 21.4566 17.333 19.8611V18.4167" stroke="#DDF247" stroke-width="2.16667" stroke-linecap="round" stroke-linejoin="round"/>
</svg>
