<svg width="26" height="26" viewBox="0 0 26 26" fill="none" xmlns="http://www.w3.org/2000/svg">
<path d="M22.2109 2.84961L14.2266 8.77968L15.7031 5.28102L22.2109 2.84961Z" fill="#E2761B" stroke="#E2761B" stroke-width="1.2783" stroke-linecap="round" stroke-linejoin="round"/>
<path d="M3.7793 2.84766L11.6994 8.8339L10.2952 5.27907L3.7793 2.84766Z" fill="#E4761B" stroke="#E4761B" stroke-width="1.2783" stroke-linecap="round" stroke-linejoin="round"/>
<path d="M19.3394 16.5938L17.2129 19.8517L21.7628 21.1035L23.0707 16.666L19.3394 16.5938Z" fill="#E4761B" stroke="#E4761B" stroke-width="1.2783" stroke-linecap="round" stroke-linejoin="round"/>
<path d="M2.9375 16.666L4.23746 21.1035L8.78733 19.8517L6.66085 16.5938L2.9375 16.666Z" fill="#E4761B" stroke="#E4761B" stroke-width="1.2783" stroke-linecap="round" stroke-linejoin="round"/>
<path d="M8.53154 11.0879L7.26367 13.0057L11.7814 13.2064L11.621 8.35156L8.53154 11.0879Z" fill="#E4761B" stroke="#E4761B" stroke-width="1.2783" stroke-linecap="round" stroke-linejoin="round"/>
<path d="M17.4604 11.0894L14.3309 8.29688L14.2266 13.2078L18.7363 13.0072L17.4604 11.0894Z" fill="#E4761B" stroke="#E4761B" stroke-width="1.2783" stroke-linecap="round" stroke-linejoin="round"/>
<path d="M8.78711 19.8509L11.4994 18.5268L9.15623 16.6973L8.78711 19.8509Z" fill="#E4761B" stroke="#E4761B" stroke-width="1.2783" stroke-linecap="round" stroke-linejoin="round"/>
<path d="M14.4922 18.5268L17.2125 19.8509L16.8353 16.6973L14.4922 18.5268Z" fill="#E4761B" stroke="#E4761B" stroke-width="1.2783" stroke-linecap="round" stroke-linejoin="round"/>
<path d="M17.2125 19.8514L14.4922 18.5273L14.7088 20.3007L14.6848 21.047L17.2125 19.8514Z" fill="#D7C1B3" stroke="#D7C1B3" stroke-width="1.2783" stroke-linecap="round" stroke-linejoin="round"/>
<path d="M8.78711 19.8514L11.3148 21.047L11.2988 20.3007L11.4994 18.5273L8.78711 19.8514Z" fill="#D7C1B3" stroke="#D7C1B3" stroke-width="1.2783" stroke-linecap="round" stroke-linejoin="round"/>
<path d="M11.3547 15.5271L9.0918 14.8611L10.6887 14.1309L11.3547 15.5271Z" fill="#233447" stroke="#233447" stroke-width="1.2783" stroke-linecap="round" stroke-linejoin="round"/>
<path d="M14.6367 15.5271L15.3027 14.1309L16.9076 14.8611L14.6367 15.5271Z" fill="#233447" stroke="#233447" stroke-width="1.2783" stroke-linecap="round" stroke-linejoin="round"/>
<path d="M8.78664 19.8517L9.17181 16.5938L6.66016 16.666L8.78664 19.8517Z" fill="#CD6116" stroke="#CD6116" stroke-width="1.2783" stroke-linecap="round" stroke-linejoin="round"/>
<path d="M16.8281 16.5938L17.2133 19.8517L19.3398 16.666L16.8281 16.5938Z" fill="#CD6116" stroke="#CD6116" stroke-width="1.2783" stroke-linecap="round" stroke-linejoin="round"/>
<path d="M18.7363 13.0078L14.2266 13.2084L14.6438 15.5275L15.3099 14.1312L16.9148 14.8615L18.7363 13.0078Z" fill="#CD6116" stroke="#CD6116" stroke-width="1.2783" stroke-linecap="round" stroke-linejoin="round"/>
<path d="M9.09129 14.8615L10.6962 14.1312L11.3542 15.5275L11.7795 13.2084L7.26172 13.0078L9.09129 14.8615Z" fill="#CD6116" stroke="#CD6116" stroke-width="1.2783" stroke-linecap="round" stroke-linejoin="round"/>
<path d="M7.26172 13.0078L9.15549 16.6991L9.09129 14.8615L7.26172 13.0078Z" fill="#E4751F" stroke="#E4751F" stroke-width="1.2783" stroke-linecap="round" stroke-linejoin="round"/>
<path d="M16.9162 14.8615L16.8359 16.6991L18.7377 13.0078L16.9162 14.8615Z" fill="#E4751F" stroke="#E4751F" stroke-width="1.2783" stroke-linecap="round" stroke-linejoin="round"/>
<path d="M11.7808 13.209L11.3555 15.5281L11.8851 18.2644L12.0054 14.6614L11.7808 13.209Z" fill="#E4751F" stroke="#E4751F" stroke-width="1.2783" stroke-linecap="round" stroke-linejoin="round"/>
<path d="M14.2284 13.209L14.0117 14.6534L14.108 18.2644L14.6457 15.5281L14.2284 13.209Z" fill="#E4751F" stroke="#E4751F" stroke-width="1.2783" stroke-linecap="round" stroke-linejoin="round"/>
<path d="M14.6451 15.5274L14.1074 18.2637L14.4926 18.5285L16.8357 16.6989L16.916 14.8613L14.6451 15.5274Z" fill="#F6851B" stroke="#F6851B" stroke-width="1.2783" stroke-linecap="round" stroke-linejoin="round"/>
<path d="M9.0918 14.8613L9.15599 16.6989L11.4991 18.5285L11.8843 18.2637L11.3547 15.5274L9.0918 14.8613Z" fill="#F6851B" stroke="#F6851B" stroke-width="1.2783" stroke-linecap="round" stroke-linejoin="round"/>
<path d="M14.6851 21.0472L14.7092 20.3009L14.5085 20.1244H11.4833L11.2988 20.3009L11.3148 21.0472L8.78711 19.8516L9.6698 20.5738L11.4593 21.8176H14.5326L16.3301 20.5738L17.2128 19.8516L14.6851 21.0472Z" fill="#C0AD9E" stroke="#C0AD9E" stroke-width="1.2783" stroke-linecap="round" stroke-linejoin="round"/>
<path d="M14.4906 18.5285L14.1054 18.2637H11.8827L11.4975 18.5285L11.2969 20.3019L11.4814 20.1253H14.5067L14.7073 20.3019L14.4906 18.5285Z" fill="#161616" stroke="#161616" stroke-width="1.2783" stroke-linecap="round" stroke-linejoin="round"/>
<path d="M22.5468 9.16486L23.2289 5.89088L22.2098 2.84961L14.4902 8.57907L17.4593 11.0907L21.6561 12.3185L22.5869 11.2352L22.1857 10.9463L22.8276 10.3605L22.3301 9.97533L22.9721 9.48583L22.5468 9.16486Z" fill="#763D16" stroke="#763D16" stroke-width="1.2783" stroke-linecap="round" stroke-linejoin="round"/>
<path d="M2.76758 5.89088L3.44966 9.16486L3.01634 9.48583L3.65829 9.97533L3.1688 10.3605L3.81076 10.9463L3.40953 11.2352L4.33235 12.3185L8.52914 11.0907L11.4982 8.57907L3.77866 2.84961L2.76758 5.89088Z" fill="#763D16" stroke="#763D16" stroke-width="1.2783" stroke-linecap="round" stroke-linejoin="round"/>
<path d="M21.6586 12.3176L17.4618 11.0898L18.7377 13.0077L16.8359 16.6989L19.3396 16.6668H23.0709L21.6586 12.3176Z" fill="#F6851B" stroke="#F6851B" stroke-width="1.2783" stroke-linecap="round" stroke-linejoin="round"/>
<path d="M8.53055 11.0898L4.33376 12.3176L2.9375 16.6668H6.66085L9.15645 16.6989L7.26268 13.0077L8.53055 11.0898Z" fill="#F6851B" stroke="#F6851B" stroke-width="1.2783" stroke-linecap="round" stroke-linejoin="round"/>
<path d="M14.2269 13.2094L14.4917 8.5793L15.7114 5.28125H10.2949L11.4986 8.5793L11.7794 13.2094L11.8757 14.6699L11.8838 18.2648H14.1065L14.1226 14.6699L14.2269 13.2094Z" fill="#F6851B" stroke="#F6851B" stroke-width="1.2783" stroke-linecap="round" stroke-linejoin="round"/>
</svg>
