<svg width="81" height="81" viewBox="0 0 81 81" fill="none" xmlns="http://www.w3.org/2000/svg">
<path d="M69.6872 9.0293L44.3906 27.8174L49.0686 16.7327L69.6872 9.0293Z" fill="#E2761B" stroke="#E2761B" stroke-width="4.05" stroke-linecap="round" stroke-linejoin="round"/>
<path d="M11.2891 9.02539L36.3823 27.9915L31.9331 16.7288L11.2891 9.02539Z" fill="#E4761B" stroke="#E4761B" stroke-width="4.05" stroke-linecap="round" stroke-linejoin="round"/>
<path d="M60.581 52.5781L53.8438 62.9002L68.259 66.8663L72.4031 52.8069L60.581 52.5781Z" fill="#E4761B" stroke="#E4761B" stroke-width="4.05" stroke-linecap="round" stroke-linejoin="round"/>
<path d="M8.61719 52.8069L12.7358 66.8663L27.1511 62.9002L20.4138 52.5781L8.61719 52.8069Z" fill="#E4761B" stroke="#E4761B" stroke-width="4.05" stroke-linecap="round" stroke-linejoin="round"/>
<path d="M26.3373 35.1324L22.3203 41.2087L36.6339 41.8442L36.1254 26.4629L26.3373 35.1324Z" fill="#E4761B" stroke="#E4761B" stroke-width="4.05" stroke-linecap="round" stroke-linejoin="round"/>
<path d="M54.6325 35.1365L44.7172 26.2891L44.3867 41.8484L58.6749 41.2128L54.6325 35.1365Z" fill="#E4761B" stroke="#E4761B" stroke-width="4.05" stroke-linecap="round" stroke-linejoin="round"/>
<path d="M27.1484 62.8958L35.7417 58.7009L28.3179 52.9043L27.1484 62.8958Z" fill="#E4761B" stroke="#E4761B" stroke-width="4.05" stroke-linecap="round" stroke-linejoin="round"/>
<path d="M45.2266 58.7009L53.8452 62.8958L52.6503 52.9043L45.2266 58.7009Z" fill="#E4761B" stroke="#E4761B" stroke-width="4.05" stroke-linecap="round" stroke-linejoin="round"/>
<path d="M53.8452 62.8961L45.2266 58.7012L45.913 64.3198L45.8367 66.6842L53.8452 62.8961Z" fill="#D7C1B3" stroke="#D7C1B3" stroke-width="4.05" stroke-linecap="round" stroke-linejoin="round"/>
<path d="M27.1523 62.8961L35.1608 66.6842L35.11 64.3198L35.7456 58.7012L27.1523 62.8961Z" fill="#D7C1B3" stroke="#D7C1B3" stroke-width="4.05" stroke-linecap="round" stroke-linejoin="round"/>
<path d="M35.2867 49.1952L28.1172 47.085L33.1765 44.7715L35.2867 49.1952Z" fill="#233447" stroke="#233447" stroke-width="4.05" stroke-linecap="round" stroke-linejoin="round"/>
<path d="M45.6836 49.1952L47.7938 44.7715L52.8785 47.085L45.6836 49.1952Z" fill="#233447" stroke="#233447" stroke-width="4.05" stroke-linecap="round" stroke-linejoin="round"/>
<path d="M27.1592 62.8923L28.3795 52.5703L20.4219 52.7991L27.1592 62.8923Z" fill="#CD6116" stroke="#CD6116" stroke-width="4.05" stroke-linecap="round" stroke-linejoin="round"/>
<path d="M52.6328 52.5703L53.8532 62.8923L60.5904 52.7991L52.6328 52.5703Z" fill="#CD6116" stroke="#CD6116" stroke-width="4.05" stroke-linecap="round" stroke-linejoin="round"/>
<path d="M58.6827 41.209L44.3945 41.8446L45.7166 49.192L47.8267 44.7683L52.9115 47.0819L58.6827 41.209Z" fill="#CD6116" stroke="#CD6116" stroke-width="4.05" stroke-linecap="round" stroke-linejoin="round"/>
<path d="M28.1247 47.0819L33.2095 44.7683L35.2942 49.192L36.6417 41.8446L22.3281 41.209L28.1247 47.0819Z" fill="#CD6116" stroke="#CD6116" stroke-width="4.05" stroke-linecap="round" stroke-linejoin="round"/>
<path d="M22.3203 41.209L28.3203 52.9039L28.1169 47.0819L22.3203 41.209Z" fill="#E4751F" stroke="#E4751F" stroke-width="4.05" stroke-linecap="round" stroke-linejoin="round"/>
<path d="M52.9066 47.0819L52.6523 52.9039L58.6778 41.209L52.9066 47.0819Z" fill="#E4751F" stroke="#E4751F" stroke-width="4.05" stroke-linecap="round" stroke-linejoin="round"/>
<path d="M36.6365 41.8457L35.2891 49.1932L36.967 57.8627L37.3484 46.4474L36.6365 41.8457Z" fill="#E4751F" stroke="#E4751F" stroke-width="4.05" stroke-linecap="round" stroke-linejoin="round"/>
<path d="M44.3896 41.8457L43.7031 46.422L44.0082 57.8627L45.7116 49.1932L44.3896 41.8457Z" fill="#E4751F" stroke="#E4751F" stroke-width="4.05" stroke-linecap="round" stroke-linejoin="round"/>
<path d="M45.7112 49.1942L44.0078 57.8636L45.2281 58.7026L52.6519 52.906L52.9061 47.084L45.7112 49.1942Z" fill="#F6851B" stroke="#F6851B" stroke-width="4.05" stroke-linecap="round" stroke-linejoin="round"/>
<path d="M28.1172 47.084L28.3206 52.906L35.7443 58.7026L36.9646 57.8636L35.2867 49.1942L28.1172 47.084Z" fill="#F6851B" stroke="#F6851B" stroke-width="4.05" stroke-linecap="round" stroke-linejoin="round"/>
<path d="M45.8388 66.6807L45.9151 64.3163L45.2795 63.757H35.6947L35.11 64.3163L35.1608 66.6807L27.1523 62.8926L29.949 65.1807L35.6184 69.1214H45.3557L51.0506 65.1807L53.8473 62.8926L45.8388 66.6807Z" fill="#C0AD9E" stroke="#C0AD9E" stroke-width="4.05" stroke-linecap="round" stroke-linejoin="round"/>
<path d="M45.2241 58.7042L44.0038 57.8652H36.9614L35.7411 58.7042L35.1055 64.3229L35.6902 63.7635H45.275L45.9106 64.3229L45.2241 58.7042Z" fill="#161616" stroke="#161616" stroke-width="4.05" stroke-linecap="round" stroke-linejoin="round"/>
<path d="M70.7559 29.0339L72.9169 18.661L69.6881 9.02539L45.2305 27.1779L54.6372 35.1356L67.9339 39.0254L70.883 35.5932L69.6118 34.6779L71.6457 32.822L70.0695 31.6017L72.1034 30.0508L70.7559 29.0339Z" fill="#763D16" stroke="#763D16" stroke-width="4.05" stroke-linecap="round" stroke-linejoin="round"/>
<path d="M8.08594 18.661L10.247 29.0339L8.87407 30.0508L10.908 31.6017L9.35712 32.822L11.391 34.6779L10.1198 35.5932L13.0436 39.0254L26.3402 35.1356L35.747 27.1779L11.2893 9.02539L8.08594 18.661Z" fill="#763D16" stroke="#763D16" stroke-width="4.05" stroke-linecap="round" stroke-linejoin="round"/>
<path d="M67.932 39.0246L54.6354 35.1348L58.6778 41.211L52.6523 52.906L60.5845 52.8043H72.4066L67.932 39.0246Z" fill="#F6851B" stroke="#F6851B" stroke-width="4.05" stroke-linecap="round" stroke-linejoin="round"/>
<path d="M26.3375 35.1348L13.0409 39.0246L8.61719 52.8043H20.4138L28.3206 52.906L22.3206 41.211L26.3375 35.1348Z" fill="#F6851B" stroke="#F6851B" stroke-width="4.05" stroke-linecap="round" stroke-linejoin="round"/>
<path d="M44.3873 41.8511L45.2263 27.1816L49.0907 16.7324H31.9297L35.7432 27.1816L36.6331 41.8511L36.9382 46.4782L36.9636 57.868H44.006L44.0568 46.4782L44.3873 41.8511Z" fill="#F6851B" stroke="#F6851B" stroke-width="4.05" stroke-linecap="round" stroke-linejoin="round"/>
</svg>
