<svg width="26" height="26" viewBox="0 0 26 26" fill="none" xmlns="http://www.w3.org/2000/svg">
<path d="M15.8571 4.84368V7.87795C16.6657 8.2308 17.4085 8.73509 18.0514 9.37794C19.3999 10.7265 20.1428 12.5208 20.1428 14.4293C20.1428 16.3379 19.3999 18.1308 18.0514 19.4807C16.7028 20.8293 14.9085 21.5722 13 21.5722C11.0914 21.5722 9.29856 20.8293 7.94857 19.4807C6.60001 18.1322 5.85715 16.3379 5.85715 14.4293C5.85715 12.5208 6.60001 10.7279 7.94857 9.37794C8.59142 8.73509 9.33428 8.2308 10.1428 7.87795V4.84368C7.84096 5.52997 5.86301 7.02189 4.57068 9.04662C3.27836 11.0714 2.75801 13.4936 3.10478 15.8705C3.45156 18.2473 4.6423 20.4199 6.45925 21.991C8.2762 23.5621 10.598 24.4267 13 24.4267C15.402 24.4267 17.7237 23.5621 19.5407 21.991C21.3577 20.4199 22.5484 18.2473 22.8952 15.8705C23.2419 13.4936 22.7216 11.0714 21.4293 9.04662C20.1369 7.02189 18.159 5.52997 15.8571 4.84368ZM11.5714 1.57227H14.4285V13.0008H11.5714V1.57227Z" fill="white"/>
</svg>
