<svg width="50" height="50" viewBox="0 0 50 50" fill="none" xmlns="http://www.w3.org/2000/svg">
<path d="M19.1257 28.762L31.3756 16.512M20.1465 17.5329H20.167M30.3549 27.7412H30.3753M39.5423 43.0537V10.387C39.5423 8.13188 37.7141 6.30371 35.459 6.30371H15.0423C12.7872 6.30371 10.959 8.13188 10.959 10.387V43.0537L18.1048 38.9704L25.2506 43.0537L32.3965 38.9704L39.5423 43.0537ZM21.1673 17.5329C21.1673 18.0967 20.7103 18.5537 20.1465 18.5537C19.5827 18.5537 19.1257 18.0967 19.1257 17.5329C19.1257 16.9691 19.5827 16.512 20.1465 16.512C20.7103 16.512 21.1673 16.9691 21.1673 17.5329ZM31.3756 27.7412C31.3756 28.305 30.9186 28.762 30.3548 28.762C29.791 28.762 29.334 28.305 29.334 27.7412C29.334 27.1774 29.791 26.7204 30.3548 26.7204C30.9186 26.7204 31.3756 27.1774 31.3756 27.7412Z" stroke="#DDF247" stroke-width="4.08333" stroke-linecap="round" stroke-linejoin="round"/>
</svg>
