<svg width="18" height="18" viewBox="0 0 18 18" fill="none" xmlns="http://www.w3.org/2000/svg">
<path d="M13.3378 1.21614L13.7135 1.59179L13.3378 1.21614ZM16.5787 1.21614L16.9544 0.840485L16.9544 0.840485L16.5787 1.21614ZM16.5787 4.45704L16.9544 4.83269L16.5787 4.45704ZM3.95833 17.0774V17.6087C4.09923 17.6087 4.23435 17.5527 4.33398 17.4531L3.95833 17.0774ZM0.75 17.0774H0.21875C0.21875 17.3708 0.456599 17.6087 0.75 17.6087L0.75 17.0774ZM0.75 13.804L0.37435 13.4283C0.274721 13.5279 0.21875 13.6631 0.21875 13.804H0.75ZM13.7135 1.59179C14.401 0.904301 15.5156 0.904301 16.2031 1.59179L16.9544 0.840485C15.852 -0.261933 14.0646 -0.261933 12.9622 0.840485L13.7135 1.59179ZM16.2031 1.59179C16.8906 2.27927 16.8906 3.39391 16.2031 4.08139L16.9544 4.83269C18.0568 3.73027 18.0568 1.9429 16.9544 0.840485L16.2031 1.59179ZM16.2031 4.08139L3.58268 16.7018L4.33398 17.4531L16.9544 4.83269L16.2031 4.08139ZM3.95833 16.5462H0.75V17.6087H3.95833V16.5462ZM12.9622 0.840485L0.37435 13.4283L1.12565 14.1796L13.7135 1.59179L12.9622 0.840485ZM0.21875 13.804V17.0774H1.28125V13.804H0.21875ZM11.5872 2.96679L14.8281 6.20769L15.5794 5.45639L12.3385 2.21549L11.5872 2.96679Z" fill="#454545"/>
</svg>
