<svg width="20" height="19" viewBox="0 0 20 19" fill="none" xmlns="http://www.w3.org/2000/svg">
<path fill-rule="evenodd" clip-rule="evenodd" d="M11.3279 3.26906H14.142C17.5245 3.26906 19.1745 5.0749 19.1654 8.77823V13.2424C19.1654 16.7807 16.9837 18.9624 13.4362 18.9624H6.55203C3.02286 18.9624 0.832031 16.7807 0.832031 13.2332V6.34906C0.832031 2.55406 2.5187 0.629063 5.8462 0.629063H7.29453C8.14795 0.619896 8.94453 1.01406 9.46703 1.68323L10.2737 2.75573C10.5304 3.07656 10.9154 3.26906 11.3279 3.26906ZM5.75391 12.8116H14.2422C14.6181 12.8116 14.9206 12.4999 14.9206 12.1241C14.9206 11.7391 14.6181 11.4366 14.2422 11.4366H5.75391C5.36891 11.4366 5.06641 11.7391 5.06641 12.1241C5.06641 12.4999 5.36891 12.8116 5.75391 12.8116Z" fill="#454545"/>
</svg>
