<svg width="20" height="19" viewBox="0 0 20 19" fill="none" xmlns="http://www.w3.org/2000/svg">
<path fill-rule="evenodd" clip-rule="evenodd" d="M19.0651 12.3651H15.3544C13.6155 12.3651 12.2001 10.9507 12.1992 9.21272C12.1992 7.47289 13.6146 6.05756 15.3544 6.05664H19.0651C19.4446 6.05664 19.7526 6.36464 19.7526 6.74414C19.7526 7.12364 19.4446 7.43164 19.0651 7.43164H15.3544C14.3726 7.43256 13.5742 8.23097 13.5742 9.21181C13.5742 10.1917 14.3736 10.9901 15.3544 10.9901H19.0651C19.4446 10.9901 19.7526 11.2981 19.7526 11.6776C19.7526 12.0571 19.4446 12.3651 19.0651 12.3651Z" fill="#454545"/>
<path fill-rule="evenodd" clip-rule="evenodd" d="M15.7743 9.84375H15.4883C15.1088 9.84375 14.8008 9.53575 14.8008 9.15625C14.8008 8.77675 15.1088 8.46875 15.4883 8.46875H15.7743C16.1538 8.46875 16.4618 8.77675 16.4618 9.15625C16.4618 9.53575 16.1538 9.84375 15.7743 9.84375Z" fill="#454545"/>
<mask id="mask0_232_1183" style="mask-type:luminance" maskUnits="userSpaceOnUse" x="0" y="0" width="20" height="19">
<path fill-rule="evenodd" clip-rule="evenodd" d="M0.833984 0.544922H19.7527V18.1201H0.833984V0.544922Z" fill="white"/>
</mask>
<g mask="url(#mask0_232_1183)">
<path fill-rule="evenodd" clip-rule="evenodd" d="M6.33215 1.91992C4.05882 1.91992 2.20898 3.76976 2.20898 6.04309V12.622C2.20898 14.8953 4.05882 16.7452 6.33215 16.7452H14.2558C16.5292 16.7452 18.3781 14.8953 18.3781 12.622V6.04309C18.3781 3.76976 16.5292 1.91992 14.2558 1.91992H6.33215ZM14.2558 18.1202H6.33215C3.30073 18.1202 0.833984 15.6534 0.833984 12.622V6.04309C0.833984 3.01076 3.30073 0.544922 6.33215 0.544922H14.2558C17.2872 0.544922 19.7531 3.01076 19.7531 6.04309V12.622C19.7531 15.6534 17.2872 18.1202 14.2558 18.1202Z" fill="#454545"/>
</g>
<path fill-rule="evenodd" clip-rule="evenodd" d="M10.6288 6.08008H5.67969C5.30019 6.08008 4.99219 5.77208 4.99219 5.39258C4.99219 5.01308 5.30019 4.70508 5.67969 4.70508H10.6288C11.0083 4.70508 11.3163 5.01308 11.3163 5.39258C11.3163 5.77208 11.0083 6.08008 10.6288 6.08008Z" fill="#454545"/>
</svg>
