<svg width="22" height="22" viewBox="0 0 22 22" fill="none" xmlns="http://www.w3.org/2000/svg">
<path fill-rule="evenodd" clip-rule="evenodd" d="M22 3.75C22 1.679 20.321 0 18.25 0H4.25C2.179 0 0.5 1.679 0.5 3.75V17.75C0.5 19.821 2.179 21.5 4.25 21.5H18.25C20.321 21.5 22 19.821 22 17.75V3.75ZM8.45 9.25H5.57V17.25H8.45V9.25ZM12.45 10.21V9.25H9.57V17.25H12.45V13.09C12.45 12.835 12.551 12.591 12.731 12.411C12.911 12.231 13.155 12.13 13.41 12.13C13.665 12.13 13.909 12.231 14.089 12.411C14.269 12.591 14.37 12.835 14.37 13.09C14.37 14.573 14.37 17.25 14.37 17.25H17.25V12.022C17.25 10.491 16.009 9.25 14.478 9.25C13.993 9.25 13.52 9.407 13.132 9.698C12.799 9.948 12.45 10.21 12.45 10.21ZM6.85 5.25C7.733 5.25 8.45 5.967 8.45 6.85C8.45 7.733 7.733 8.45 6.85 8.45C5.967 8.45 5.25 7.733 5.25 6.85C5.25 5.967 5.967 5.25 6.85 5.25Z" fill="black" fill-opacity="0.2"/>
</svg>
