<svg width="21" height="21" viewBox="0 0 21 21" fill="none" xmlns="http://www.w3.org/2000/svg">
<g clip-path="url(#clip0_29_111)">
<path fill-rule="evenodd" clip-rule="evenodd" d="M18.4343 0C19.8504 0 21 1.14967 21 2.56569V18.4343C21 19.8503 19.8503 21 18.4343 21H2.56569C1.14967 21 0 19.8503 0 18.4343V2.56569C0 1.14967 1.14963 0 2.56569 0L18.4343 0ZM17.5743 7.20357C17.4046 6.56828 16.9043 6.06797 16.269 5.89821C15.1173 5.58961 10.5 5.58961 10.5 5.58961C10.5 5.58961 5.88267 5.58961 4.73103 5.89821C4.09586 6.06797 3.59547 6.56828 3.42567 7.20357C3.11719 8.35509 3.11719 10.7577 3.11719 10.7577C3.11719 10.7577 3.11719 13.1602 3.42567 14.3116C3.59547 14.9469 4.09586 15.4473 4.73103 15.6171C5.88267 15.9255 10.5 15.9255 10.5 15.9255C10.5 15.9255 15.1173 15.9255 16.269 15.6171C16.9043 15.4473 17.4046 14.9469 17.5743 14.3116C17.8828 13.1602 17.8828 10.7577 17.8828 10.7577C17.8828 10.7577 17.8828 8.35509 17.5743 7.20357ZM9.02336 12.9725V8.54278L12.8595 10.7577L9.02336 12.9725Z" fill="black" fill-opacity="0.2"/>
</g>
<defs>
<clipPath id="clip0_29_111">
<rect width="21" height="21" rx="4" fill="white"/>
</clipPath>
</defs>
</svg>
