<svg width="26" height="23" viewBox="0 0 26 23" fill="none" xmlns="http://www.w3.org/2000/svg">
<path d="M21.125 18.5007C18.4373 18.5007 16.25 16.3134 16.25 13.6257C16.25 10.9379 18.4373 8.75065 21.125 8.75065H23.8333V6.58398C23.8333 5.38907 22.8616 4.41732 21.6667 4.41732H20.5833V2.25065C20.5833 1.05573 19.6116 0.0839844 18.4167 0.0839844H3.25C2.48368 0.0858201 1.7427 0.358563 1.15806 0.853987C0.573424 1.34941 0.182797 2.0356 0.05525 2.79123C0.0314167 2.88007 0 2.96673 0 3.06315V19.584C0 21.3758 1.45817 22.834 3.25 22.834H21.6667C22.8616 22.834 23.8333 21.8622 23.8333 20.6673V18.5007H21.125ZM2.16667 3.33398C2.16667 2.73707 2.652 2.25065 3.25 2.25065H18.4167V4.41732H3.25C2.652 4.41732 2.16667 3.9309 2.16667 3.33398Z" fill="#161616"/>
<path d="M25.3125 11H21.25C19.4582 11 18 12.4582 18 14.25C18 16.0418 19.4582 17.5 21.25 17.5H25.3125C25.528 17.5 25.7347 17.4144 25.887 17.262C26.0394 17.1097 26.125 16.903 26.125 16.6875V11.8125C26.125 11.597 26.0394 11.3903 25.887 11.238C25.7347 11.0856 25.528 11 25.3125 11ZM21.25 15.3333C20.9627 15.3333 20.6871 15.2192 20.484 15.016C20.2808 14.8129 20.1667 14.5373 20.1667 14.25C20.1667 13.9627 20.2808 13.6871 20.484 13.484C20.6871 13.2808 20.9627 13.1667 21.25 13.1667C21.5373 13.1667 21.8129 13.2808 22.016 13.484C22.2192 13.6871 22.3333 13.9627 22.3333 14.25C22.3333 14.5373 22.2192 14.8129 22.016 15.016C21.8129 15.2192 21.5373 15.3333 21.25 15.3333Z" fill="#161616"/>
</svg>
